{"title":"Money Monster 2016 1080p BRRIP x265 HEVC 10bits L5-ROIMEZ","uid":15648364,"size":4155560061,"categoryP":"video","categoryS":"hd___movies","magnet":"?xt=urn:btih:929b3790a6bc3e98d9f073adae9c6fa6b3df8738&amp;dn=Money+Monster+2016+1080p+BRRIP+x265+HEVC+10bits+L5-ROIMEZ&amp;tr=udp%3A%2F%2Ftracker.leechers-paradise.org%3A6969&amp;tr=udp%3A%2F%2Fzer0day.ch%3A1337&amp;tr=udp%3A%2F%2Fopen.demonii.com%3A1337&amp;tr=udp%3A%2F%2Ftracker.coppersurfer.tk%3A6969&amp;tr=udp%3A%2F%2Fexodus.desync.com%3A6969","seeders":0,"leechers":2,"uploader":"Pirulo233","files":9,"time":1472070615,"description":"Complete name: Money.Monster.2016.1080p.BRRIP.x265.HEVC.10bits.L5-ROIMEZ\r\nFinancial TV host Lee Gates and his producer Patty are put in an extreme situation \r\nwhen an irate investor takes over their studio.\r\n\r\nGenres:  Crime, Drama, Thriller  \r\nCast:  George Clooney, Julia Roberts, Jack O'Connell\r\n\r\nRelease date: 6 July 2016\r\nLanguage: English\r\nSubtitles: English &amp; Spanish\r\nSource: Money.Monster.2016.1080p.BluRay.REMUX.AVC.DTS-HD.MA.5.1-FGT\r\n\r\nGeneral\r\nFormat                      : Matroska\r\nFormat version              : Version 4 / Version 2\r\nFile size                   : 3.87 GiB\r\nDuration                    : 1h 38mn\r\nOverall bit rate            : 5 613 Kbps\r\nEncoded date                : UTC 2016-08-19 03:04:04\r\nWriting application         : mkvmerge v9.0.1 ('Obstacles') 64bit\r\nWriting library             : libebml v1.3.3 + libmatroska v1.4.4\r\n\r\nVideo\r\nID                          : 1\r\nFormat                      : HEVC\r\nFormat/Info                 : High Efficiency Video Coding\r\nFormat profile              : Main   @Main\r\nCodec ID                    : V_MPEGH/ISO/HEVC\r\nDuration                    : 1h 38mn\r\nEncoding settings[Bit rate] : 2 pass/4 103 Kbps\r\nWidth                       : 1 920 pixels\r\nHeight                      : 804 pixels\r\nDisplay aspect ratio        : 2.40:1\r\nFrame rate mode             : Constant\r\nFrame rate                  : 23.976 (24000/1001) fps\r\nOriginal frame rate         : 23.976 (23976/1000) fps\r\nColor space                 : YUV\r\nChroma subsampling          : 4:2:0\r\nBit depth                   : 10 bits\r\nBits/(Pixel*Frame)          : 0.111\r\nStream size                 : 2.83 GiB (73%)\r\nWriting library             : x265 2.0+2\r\nDefault                     : Yes\r\nForced                      : No\r\n\r\nAudio\r\nID                          : 2\r\nFormat                      : DTS\r\nFormat/Info                 : Digital Theater Systems\r\nMode                        : 16\r\nFormat settings, Endianness : Big\r\nCodec ID                    : A_DTS\r\nDuration                    : 1h 38mn\r\nBit rate mode               : Constant\r\nBit rate                    : 1 509 Kbps\r\nChannel(s)                  : 6 channels\r\nChannel positions           : Front: L C R, Side: L R, LFE\r\nSampling rate               : 48.0 KHz\r\nFrame rate                  : 93.750 fps (512 spf)\r\nBit depth                   : 24 bits\r\nCompression mode            : Lossy\r\nStream size                 : 1.04 GiB (27%)\r\nDefault                     : Yes\r\nForced                      : No\r\n\r\nScreencaps: \nhttps://s5.postimg.io/6ndq3blon/Money_Monster_2016.png\r\n\r\nPlease continue seeding and sharing the torrent, thanks","torrent":{"xt":"urn:btih:929b3790a6bc3e98d9f073adae9c6fa6b3df8738","amp;dn":"Money+Monster+2016+1080p+BRRIP+x265+HEVC+10bits+L5-ROIMEZ","amp;tr":["udp%3A%2F%2Ftracker.leechers-paradise.org%3A6969","udp%3A%2F%2Fzer0day.ch%3A1337","udp%3A%2F%2Fopen.demonii.com%3A1337","udp%3A%2F%2Ftracker.coppersurfer.tk%3A6969","udp%3A%2F%2Fexodus.desync.com%3A6969"],"infoHash":"929b3790a6bc3e98d9f073adae9c6fa6b3df8738","infoHashBuffer":{"type":"Buffer","data":[146,155,55,144,166,188,62,152,217,240,115,173,174,156,111,166,179,223,135,56]},"announce":[],"urlList":[]}}